# xmcd
#
# Track frame offsets:
#	150
#	14992
#	30982
#	45799
#	61840
#	72429
#	89810
#	107901
#	121270
#	137519
#	149387
#	164841
#	175230
#	193407
#	208921
#	219659
#
# Disc length: 3285
#
# Revision: 4
# Processed by: cddbd v1.5.1PL0 Copyright (c) Steve Scherf et al.
# Submitted via: CDex 1.50
# Normalized: r3:TRMNUM
#
DISCID=fb0cd310
DTITLE=Western Union - Country and Truckerhits
DYEAR=1900
DGENRE=Country
TTITLE0=Auf der Autobahn
TTITLE1=Bärenstark
TTITLE2=Ich möcht so gerne mal nach Nashville
TTITLE3=Dieselcowboys
TTITLE4=Country-Music nachts bis um halb vier
TTITLE5=Heiße Bräute und kühles Bier
TTITLE6=Silbervogel
TTITLE7=Unser Lied im Radio
TTITLE8=Detroit City
TTITLE9=Six days on the road
TTITLE10=Some broken hearts never mind
TTITLE11=King of the road
TTITLE12=I can?t stop loving you
TTITLE13=Green green grass of home
TTITLE14=Truck drivin?man
TTITLE15=Country roads
EXTD=
EXTT0=
EXTT1=
EXTT2=
EXTT3=
EXTT4=
EXTT5=
EXTT6=
EXTT7=
EXTT8=
EXTT9=
EXTT10=
EXTT11=
EXTT12=
EXTT13=
EXTT14=
EXTT15=
PLAYORDER=
